<svg viewBox="0 0 96 19.4158" xmlns="http://www.w3.org/2000/svg" xmlns:xlink="http://www.w3.org/1999/xlink" width="96.000000" height="19.415771" fill="none">
	<rect id="Logo" width="96.000000" height="19.415730" x="0.000000" y="0.000000" fill="rgb(255,255,255)" fill-opacity="0" />
	<path id="t" d="M95.8297 14.8287L95.8297 17.201L93.8368 17.201C91.7102 17.1343 90.574 15.9875 90.574 13.8336L90.574 8.41541L89.1826 8.41541L89.1826 6.33428L90.574 6.33428L90.574 4.00439L93.5148 4.00439L93.5148 6.31001L95.7629 6.31001L95.7629 8.38507L93.5148 8.38507L93.5148 13.5424C93.5148 14.2401 93.6545 14.7983 94.73 14.7983L95.8297 14.8287Z" fill="rgb(255,181,119)" fill-rule="nonzero" />
	<path id="e" d="M77.4625 11.7891L77.4625 11.6313C77.4307 10.9335 77.5371 10.2362 77.7757 9.57953C78.0142 8.92284 78.3802 8.31962 78.8527 7.80443C79.3251 7.28925 79.8947 6.87224 80.5289 6.57731C81.163 6.28237 81.8492 6.11531 82.5481 6.08569C82.6878 6.08569 82.8337 6.08569 82.9734 6.08569C85.7501 6.08569 88.1866 7.69963 88.1866 11.5464L88.1866 12.3655L80.4701 12.3655C80.5491 14.1372 81.5091 15.1383 83.1253 15.1383C84.5167 15.1383 85.1668 14.5315 85.3552 13.6457L88.1319 13.6457C87.7916 15.9574 85.9445 17.2437 83.022 17.2437C79.8139 17.2194 77.4625 15.1929 77.4625 11.7891ZM85.2944 10.5088C85.1911 8.89491 84.377 8.11828 82.9613 8.11828C81.5456 8.11828 80.7314 8.99199 80.5309 10.5088L85.2944 10.5088Z" fill="rgb(255,181,119)" fill-rule="nonzero" />
	<path id="e" d="M65.4562 11.7891L65.4562 11.6313C65.4244 10.9345 65.5304 10.2382 65.7682 9.58223C66.006 8.9263 66.3709 8.3236 66.842 7.80857C67.3132 7.29355 67.8814 6.8763 68.5141 6.58068C69.1469 6.28506 69.8318 6.11686 70.5296 6.08569C70.6694 6.08569 70.8152 6.08569 70.9549 6.08569C73.7316 6.08569 76.1742 7.69963 76.1742 11.5464L76.1742 12.3655L68.4638 12.3655C68.5428 14.1372 69.5028 15.1383 71.119 15.1383C72.5104 15.1383 73.1605 14.5315 73.3489 13.6457L76.1256 13.6457C75.7792 15.9574 73.9322 17.2437 71.0096 17.2437C67.8076 17.2194 65.4562 15.1929 65.4562 11.7891ZM73.2881 10.5088C73.1848 8.89491 72.3706 8.11828 70.9549 8.11828C69.5392 8.11828 68.7494 9.01625 68.5246 10.5028L73.2881 10.5088Z" fill="rgb(255,181,119)" fill-rule="nonzero" />
	<path id="w" d="M48.6074 6.31006L51.7183 6.31006L53.6201 13.506L55.7041 6.31006L58.1345 6.31006L60.0181 13.506L62.0231 6.31006L64.8727 6.31006L61.4945 17.0008L58.5781 17.0008L56.7553 10.2903L54.8049 17.0008L51.852 17.0008L48.6074 6.31006Z" fill="rgb(255,181,119)" fill-rule="nonzero" />
	<path id="s" d="M38.7222 13.6395L41.4989 13.6395C41.6265 14.6042 42.1065 15.1563 43.3824 15.1563C44.5247 15.1563 45.0533 14.7255 45.0533 13.9914C45.0533 13.2572 44.4457 12.9478 42.8903 12.7294C40.0407 12.2986 38.9409 11.4795 38.9409 9.39229C38.9409 7.16555 40.9824 6.06128 43.1941 6.06128C45.5698 6.06128 47.3622 6.92285 47.6174 9.38016L44.8771 9.38016C44.8596 9.19019 44.8046 9.00556 44.7153 8.83694C44.6259 8.66833 44.504 8.51906 44.3565 8.39777C44.2091 8.27647 44.039 8.18556 43.8562 8.13027C43.6733 8.07499 43.4813 8.05642 43.2913 8.07566L43.2001 8.07566C42.2401 8.07566 41.6812 8.52465 41.6812 9.17993C41.6812 9.83521 42.1976 10.1204 43.7652 10.3449C46.4265 10.7453 47.9151 11.4188 47.9151 13.7062C47.9151 15.9936 46.232 17.2193 43.4128 17.2193C40.5936 17.2193 38.8012 15.9512 38.7222 13.6395Z" fill="rgb(255,181,119)" fill-rule="nonzero" />
	<path id="n" d="M26.9224 6.31L29.8631 6.31L29.8631 8.00281C30.1946 7.38147 30.6977 6.86822 31.3127 6.52404C31.9277 6.17986 32.6287 6.01923 33.3325 6.06124C35.4165 6.06124 36.9295 7.32933 36.9295 10.2235L36.9295 17.0251L34.0251 17.0251L34.0251 10.6482C34.0251 9.19809 33.4601 8.50641 32.1477 8.50641C31.8703 8.48229 31.5909 8.51312 31.3254 8.59713C31.06 8.68114 30.8138 8.81667 30.601 8.99594C30.3881 9.17522 30.2129 9.3947 30.0852 9.6418C29.9575 9.8889 29.88 10.1587 29.857 10.4358C29.8419 10.5648 29.8419 10.6952 29.857 10.8242L29.857 17.0008L26.9224 17.0008L26.9224 6.31Z" fill="rgb(255,181,119)" fill-rule="nonzero" />
	<path id="i" d="M21.2476 3.62236C21.2369 3.32957 21.3135 3.0402 21.4676 2.7909C21.6217 2.54159 21.8465 2.34356 22.1134 2.22187C22.3803 2.10018 22.6773 2.06031 22.9669 2.1073C23.2565 2.1543 23.5256 2.28605 23.7402 2.48587C23.9548 2.68569 24.1052 2.94459 24.1723 3.2298C24.2394 3.51502 24.2203 3.81371 24.1174 4.08807C24.0144 4.36242 23.8323 4.60011 23.594 4.77102C23.3557 4.94194 23.0719 5.03841 22.7787 5.04821L22.724 5.04821C22.542 5.05971 22.3595 5.03522 22.187 4.97613C22.0145 4.91705 21.8554 4.82454 21.7188 4.7039C21.5822 4.58327 21.4708 4.43689 21.391 4.27315C21.3111 4.10942 21.2645 3.93156 21.2536 3.74978C21.2486 3.7075 21.2466 3.66493 21.2476 3.62236ZM21.2476 6.31023L24.2187 6.31023L24.2187 17.001L21.2597 17.001L21.2476 6.31023Z" fill="rgb(255,181,119)" fill-rule="nonzero" />
	<path id="F" d="M10.0498 2.39062L19.4432 2.39062L19.4432 4.98141L13.3673 4.98141L13.3673 8.84636L18.1794 8.84636L18.1794 11.3401L13.3612 11.3401L13.3612 17.001L10.0498 17.001L10.0498 2.39062Z" fill="rgb(255,181,119)" fill-rule="nonzero" />
	<path id="{" d="M4.38076 7.17168C4.38076 8.08786 4.38076 9.20427 3.11696 9.65933C4.41114 10.1022 4.38076 11.0427 4.38076 12.0256L4.38076 15.6661C4.38076 16.3578 4.66025 16.7764 5.15848 16.8795C5.26796 16.9164 5.3833 16.9329 5.49873 16.9281L6.71392 16.9281L6.71392 19.3551L4.70886 19.3551C2.57013 19.3551 1.39139 18.1416 1.39139 15.8906L1.39139 11.5827C1.37622 11.3615 1.27857 11.1541 1.11771 11.0013C0.956855 10.8486 0.744484 10.7616 0.522532 10.7575L0 10.7575L0 8.62786L0.522532 8.62786C0.748913 8.62488 0.965455 8.53498 1.12723 8.37682C1.28901 8.21866 1.38361 8.00438 1.39139 7.77843L1.39139 3.40989C1.39139 1.19528 2.54582 0 4.70886 0L6.73215 0L6.73215 2.39056L5.51696 2.39056C5.40138 2.3909 5.28657 2.40932 5.17671 2.44517C4.67848 2.57258 4.39899 2.98517 4.39899 3.65865L4.38076 7.17168Z" fill="rgb(255,181,119)" fill-rule="nonzero" />
</svg>
